AmstelvarAlpha-prwg120-wght75.ufo
<glyph name="quotesingle" format="1">
  <advance width="446"/>
  <unicode hex="0027"/>
  <outline>
    <contour>
      <point x="222" y="964" type="line"/>
      <point x="198" y="1434" type="line" smooth="yes"/>
      <point x="196" y="1490"/>
      <point x="201" y="1558"/>
      <point x="223" y="1558" type="qcurve" smooth="yes"/>
      <point x="245" y="1558"/>
      <point x="249" y="1490"/>
      <point x="247" y="1434" type="qcurve" smooth="yes"/>
      <point x="224" y="964" type="line"/>
    </contour>
  </outline>
</glyph>
<glyph name="parenright" format="1">
  <advance width="567"/>
  <unicode hex="0029"/>
  <outline>
    <contour>
      <point x="499" y="672" type="qcurve" smooth="yes"/>
      <point x="499" y="414"/>
      <point x="211" y="-51"/>
      <point x="62" y="-169" type="qcurve"/>
      <point x="27" y="-138" type="line"/>
      <point x="169" y="-11"/>
      <point x="486" y="408"/>
      <point x="486" y="672" type="qcurve" smooth="yes"/>
      <point x="486" y="936"/>
      <point x="169" y="1355"/>
      <point x="27" y="1482" type="qcurve"/>
      <point x="62" y="1513" type="line"/>
      <point x="211" y="1395"/>
      <point x="499" y="932"/>
    </contour>
  </outline>
</glyph>
<glyph name="greater" format="1">
  <advance width="675"/>
  <unicode hex="003E"/>
  <outline>
    <contour>
      <point x="569" y="634" type="qcurve"/>
      <point x="569" y="634"/>
      <point x="185" y="251"/>
      <point x="126" y="189" type="qcurve" smooth="yes"/>
      <point x="118" y="181"/>
      <point x="115" y="180"/>
      <point x="125" y="188" type="qcurve"/>
      <point x="242" y="303"/>
      <point x="583" y="634"/>
      <point x="583" y="634" type="qcurve"/>
      <point x="583" y="634"/>
      <point x="242" y="963"/>
      <point x="126" y="1077" type="qcurve"/>
      <point x="115" y="1085"/>
      <point x="119" y="1084"/>
      <point x="125" y="1077" type="qcurve"/>
      <point x="185" y="1015"/>
      <point x="569" y="634"/>
    </contour>
  </outline>
</glyph>
<glyph name="question" format="1">
  <advance width="862"/>
  <unicode hex="003F"/>
  <outline>
    <contour>
      <point x="212" y="76" type="qcurve" smooth="yes"/>
      <point x="212" y="114"/>
      <point x="264" y="170"/>
      <point x="306" y="170" type="qcurve" smooth="yes"/>
      <point x="348" y="170"/>
      <point x="400" y="114"/>
      <point x="400" y="76" type="qcurve" smooth="yes"/>
      <point x="400" y="37"/>
      <point x="348" y="-18"/>
      <point x="306" y="-18" type="qcurve" smooth="yes"/>
      <point x="264" y="-18"/>
      <point x="212" y="37"/>
    </contour>
    <contour>
      <point x="23" y="1342" type="line"/>
      <point x="80" y="1427"/>
      <point x="280" y="1538"/>
      <point x="415" y="1538" type="qcurve" smooth="yes"/>
      <point x="604" y="1538"/>
      <point x="842" y="1301"/>
      <point x="842" y="1119" type="qcurve" smooth="yes"/>
      <point x="842" y="936"/>
      <point x="627" y="728"/>
      <point x="463" y="728" type="qcurve" smooth="yes"/>
      <point x="424" y="728"/>
      <point x="340" y="743"/>
      <point x="303" y="756" type="qcurve"/>
      <point x="298" y="371" type="line"/>
      <point x="297" y="371" type="line"/>
      <point x="297" y="643" type="line"/>
      <point x="289" y="776" type="line"/>
      <point x="294" y="808" type="line"/>
      <point x="322" y="801"/>
      <point x="407" y="792"/>
      <point x="444" y="792" type="qcurve" smooth="yes"/>
      <point x="585" y="792"/>
      <point x="822" y="944"/>
      <point x="822" y="1119" type="qcurve" smooth="yes"/>
      <point x="822" y="1292"/>
      <point x="571" y="1474"/>
      <point x="416" y="1474" type="qcurve" smooth="yes"/>
      <point x="292" y="1474"/>
      <point x="111" y="1387"/>
      <point x="51" y="1315" type="qcurve"/>
    </contour>
  </outline>
</glyph>
<glyph name="at" format="1">
  <advance width="1603"/>
  <unicode hex="0040"/>
  <outline>
    <contour>
      <point x="75" y="760" type="qcurve" smooth="yes"/>
      <point x="75" y="1081"/>
      <point x="474" y="1519"/>
      <point x="802" y="1519" type="qcurve" smooth="yes"/>
      <point x="1130" y="1519"/>
      <point x="1545" y="1139"/>
      <point x="1545" y="829" type="qcurve" smooth="yes"/>
      <point x="1545" y="595"/>
      <point x="1327" y="352"/>
      <point x="1190" y="352" type="qcurve" smooth="yes"/>
      <point x="1113" y="352"/>
      <point x="1008" y="444"/>
      <point x="1008" y="561" type="qcurve" smooth="yes"/>
      <point x="1008" y="874" type="line" smooth="yes"/>
      <point x="1008" y="997"/>
      <point x="871" y="1126"/>
      <point x="761" y="1126" type="qcurve" smooth="yes"/>
      <point x="677" y="1126"/>
      <point x="553" y="1068"/>
      <point x="513" y="1025" type="qcurve"/>
      <point x="488" y="1054" type="line"/>
      <point x="521" y="1106"/>
      <point x="669" y="1192"/>
      <point x="767" y="1192" type="qcurve" smooth="yes"/>
      <point x="899" y="1192"/>
      <point x="1026" y="1009"/>
      <point x="1026" y="852" type="qcurve" smooth="yes"/>
      <point x="1026" y="524" type="line"/>
      <point x="1042" y="453"/>
      <point x="1132" y="395"/>
      <point x="1192" y="395" type="qcurve" smooth="yes"/>
      <point x="1322" y="395"/>
      <point x="1530" y="621"/>
      <point x="1530" y="829" type="qcurve" smooth="yes"/>
      <point x="1530" y="1124"/>
      <point x="1147" y="1450"/>
      <point x="807" y="1450" type="qcurve" smooth="yes"/>
      <point x="469" y="1450"/>
      <point x="90" y="1058"/>
      <point x="91" y="760" type="qcurve" smooth="yes"/>
      <point x="92" y="440"/>
      <point x="494" y="31"/>
      <point x="813" y="31" type="qcurve" smooth="yes"/>
      <point x="941" y="31"/>
      <point x="1145" y="98"/>
      <point x="1203" y="151" type="qcurve"/>
      <point x="1228" y="119" type="line"/>
      <point x="1160" y="51"/>
      <point x="940" y="-29"/>
      <point x="810" y="-29" type="qcurve" smooth="yes"/>
      <point x="482" y="-29"/>
      <point x="75" y="409"/>
    </contour>
    <contour>
      <point x="436" y="569" type="qcurve" smooth="yes"/>
      <point x="436" y="675"/>
      <point x="693" y="820"/>
      <point x="1012" y="879" type="qcurve"/>
      <point x="1014" y="834" type="line"/>
      <point x="757" y="790"/>
      <point x="455" y="670"/>
      <point x="455" y="566" type="qcurve" smooth="yes"/>
      <point x="455" y="486"/>
      <point x="599" y="394"/>
      <point x="709" y="394" type="qcurve" smooth="yes"/>
      <point x="830" y="394"/>
      <point x="978" y="496"/>
      <point x="1005" y="577" type="qcurve"/>
      <point x="1008" y="577" type="line"/>
      <point x="1002" y="497"/>
      <point x="826" y="340"/>
      <point x="704" y="340" type="qcurve" smooth="yes"/>
      <point x="568" y="340"/>
      <point x="436" y="470"/>
    </contour>
  </outline>
</glyph>
<glyph name="A" format="1">
  <advance width="1429"/>
  <unicode hex="0041"/>
  <outline>
    <contour>
      <point x="-42" y="0" type="line"/>
      <point x="-42" y="50" type="line"/>
      <point x="149" y="64" type="line"/>
      <point x="326" y="549" type="line"/>
      <point x="670" y="1508" type="line"/>
      <point x="738" y="1508" type="line"/>
      <point x="1059" y="537" type="line"/>
      <point x="1222" y="63" type="line"/>
      <point x="1470" y="50" type="line"/>
      <point x="1470" y="0" type="line"/>
      <point x="939" y="0" type="line"/>
      <point x="941" y="50" type="line"/>
      <point x="1201" y="66" type="line"/>
      <point x="1029" y="554" type="line"/>
      <point x="726" y="1473" type="line"/>
      <point x="385" y="527" type="line"/>
      <point x="220" y="64" type="line"/>
      <point x="452" y="50" type="line"/>
      <point x="452" y="0" type="line"/>
    </contour>
    <contour>
      <point x="347" y="502" type="line"/>
      <point x="367" y="559" type="line"/>
      <point x="713" y="559" type="line"/>
      <point x="1037" y="560" type="line"/>
      <point x="1058" y="504" type="line"/>
    </contour>
  </outline>
</glyph>
<glyph name="B" format="1">
  <advance width="1214"/>
  <unicode hex="0042"/>
  <outline>
    <contour>
      <point x="76" y="0" type="line"/>
      <point x="76" y="50" type="line"/>
      <point x="352" y="74" type="line"/>
      <point x="352" y="793" type="line"/>
      <point x="352" y="1419" type="line"/>
      <point x="76" y="1443" type="line"/>
      <point x="76" y="1500" type="line"/>
      <point x="611" y="1500" type="line" smooth="yes"/>
      <point x="797" y="1500"/>
      <point x="979" y="1324"/>
      <point x="979" y="1171" type="qcurve" smooth="yes"/>
      <point x="979" y="1022"/>
      <point x="829" y="853"/>
      <point x="729" y="834" type="qcurve"/>
      <point x="729" y="829" type="line"/>
      <point x="885" y="823"/>
      <point x="1106" y="630"/>
      <point x="1106" y="451" type="qcurve" smooth="yes"/>
      <point x="1106" y="239"/>
      <point x="846" y="0"/>
      <point x="634" y="0" type="qcurve" smooth="yes"/>
    </contour>
    <contour>
      <point x="371" y="78" type="line"/>
      <point x="400" y="65" type="line"/>
      <point x="645" y="54" type="line" smooth="yes"/>
      <point x="841" y="44"/>
      <point x="1086" y="244"/>
      <point x="1086" y="440" type="qcurve" smooth="yes"/>
      <point x="1086" y="599"/>
      <point x="878" y="784"/>
      <point x="699" y="784" type="qcurve" smooth="yes"/>
      <point x="377" y="784" type="line"/>
      <point x="371" y="776" type="line"/>
    </contour>
    <contour>
      <point x="371" y="846" type="line"/>
      <point x="382" y="840" type="line"/>
      <point x="662" y="840" type="line" smooth="yes"/>
      <point x="790" y="840"/>
      <point x="960" y="1016"/>
      <point x="960" y="1174" type="qcurve" smooth="yes"/>
      <point x="960" y="1305"/>
      <point x="791" y="1441"/>
      <point x="630" y="1441" type="qcurve" smooth="yes"/>
      <point x="420" y="1441" type="line"/>
      <point x="372" y="1418" type="line"/>
    </contour>
  </outline>
</glyph>
<glyph name="C" format="1">
  <advance width="1370"/>
  <unicode hex="0043"/>
  <outline>
    <contour>
      <point x="75" y="740" type="qcurve" smooth="yes"/>
      <point x="75" y="1080"/>
      <point x="477" y="1519"/>
      <point x="791" y="1519" type="qcurve" smooth="yes"/>
      <point x="947" y="1519"/>
      <point x="1175" y="1432"/>
      <point x="1245" y="1368" type="qcurve"/>
      <point x="1199" y="1308" type="line"/>
      <point x="1145" y="1377"/>
      <point x="933" y="1455"/>
      <point x="775" y="1455" type="qcurve" smooth="yes"/>
      <point x="483" y="1455"/>
      <point x="92" y="1072"/>
      <point x="95" y="748" type="qcurve" smooth="yes"/>
      <point x="97" y="420"/>
      <point x="494" y="43"/>
      <point x="792" y="43" type="qcurve" smooth="yes"/>
      <point x="999" y="43"/>
      <point x="1251" y="184"/>
      <point x="1316" y="282" type="qcurve"/>
      <point x="1364" y="244" type="line"/>
      <point x="1282" y="124"/>
      <point x="993" y="-29"/>
      <point x="797" y="-29" type="qcurve" smooth="yes"/>
      <point x="493" y="-29"/>
      <point x="75" y="379"/>
    </contour>
    <contour>
      <point x="1182" y="1329" type="line"/>
      <point x="1220" y="1487" type="line"/>
      <point x="1272" y="1487" type="line"/>
      <point x="1272" y="1041" type="line"/>
      <point x="1216" y="1041" type="line"/>
    </contour>
  </outline>
</glyph>
<glyph name="J" format="1">
  <advance width="635"/>
  <unicode hex="004A"/>
  <outline>
    <contour>
      <point x="15" y="2" type="qcurve"/>
      <point x="15" y="52" type="line"/>
      <point x="85" y="52" type="line" smooth="yes"/>
      <point x="227" y="52"/>
      <point x="353" y="162"/>
      <point x="353" y="286" type="qcurve" smooth="yes"/>
      <point x="353" y="754" type="line"/>
      <point x="352" y="1419" type="line"/>
      <point x="52" y="1443" type="line"/>
      <point x="52" y="1500" type="line"/>
      <point x="634" y="1500" type="line"/>
      <point x="634" y="1443" type="line"/>
      <point x="372" y="1419" type="line"/>
      <point x="372" y="754" type="line"/>
      <point x="372" y="301" type="line" smooth="yes"/>
      <point x="372" y="144"/>
      <point x="244" y="-15"/>
      <point x="123" y="-15" type="qcurve" smooth="yes"/>
      <point x="83" y="-15"/>
      <point x="41" y="-6"/>
    </contour>
  </outline>
</glyph>
<glyph name="R" format="1">
  <advance width="1336"/>
  <unicode hex="0052"/>
  <outline>
    <contour>
      <point x="76" y="0" type="line"/>
      <point x="76" y="50" type="line"/>
      <point x="352" y="75" type="line"/>
      <point x="352" y="795" type="line"/>
      <point x="352" y="1419" type="line"/>
      <point x="76" y="1443" type="line"/>
      <point x="76" y="1500" type="line"/>
      <point x="662" y="1500" type="line" smooth="yes"/>
      <point x="860" y="1500"/>
      <point x="1057" y="1326"/>
      <point x="1057" y="1164" type="qcurve" smooth="yes"/>
      <point x="1057" y="990"/>
      <point x="824" y="773"/>
      <point x="614" y="773" type="qcurve" smooth="yes"/>
      <point x="553" y="773"/>
      <point x="434" y="779"/>
      <point x="365" y="781" type="qcurve"/>
      <point x="365" y="830" type="line"/>
      <point x="488" y="827" type="line"/>
      <point x="607" y="827" type="line" smooth="yes"/>
      <point x="799" y="827"/>
      <point x="1037" y="1014"/>
      <point x="1037" y="1165" type="qcurve" smooth="yes"/>
      <point x="1037" y="1313"/>
      <point x="814" y="1443"/>
      <point x="650" y="1443" type="qcurve" smooth="yes"/>
      <point x="442" y="1443" type="line"/>
      <point x="372" y="1408" type="line"/>
      <point x="371" y="794" type="line"/>
      <point x="371" y="75" type="line"/>
      <point x="654" y="50" type="line"/>
      <point x="654" y="0" type="line"/>
    </contour>
    <contour>
      <point x="594" y="780" type="line"/>
      <point x="622" y="770" type="line"/>
      <point x="951" y="249" type="line" smooth="yes"/>
      <point x="1026" y="137"/>
      <point x="1212" y="51"/>
      <point x="1364" y="50" type="qcurve"/>
      <point x="1364" y="0" type="line"/>
      <point x="1100" y="0" type="line"/>
      <point x="1079" y="12" type="line"/>
    </contour>
  </outline>
</glyph>
<glyph name="W" format="1">
  <advance width="2003"/>
  <unicode hex="0057"/>
  <outline>
    <contour>
      <point x="-45" y="1443" type="line"/>
      <point x="-45" y="1500" type="line"/>
      <point x="485" y="1500" type="line"/>
      <point x="485" y="1443" type="line"/>
      <point x="213" y="1428" type="line"/>
      <point x="404" y="762" type="line"/>
      <point x="629" y="11" type="line"/>
      <point x="870" y="733" type="line"/>
      <point x="1001" y="1147" type="line"/>
      <point x="1028" y="1019" type="line"/>
      <point x="928" y="699" type="line"/>
      <point x="691" y="-5" type="line"/>
      <point x="612" y="-5" type="line"/>
      <point x="385" y="754" type="line"/>
      <point x="192" y="1426" type="line"/>
    </contour>
    <contour>
      <point x="668" y="1448" type="line"/>
      <point x="668" y="1500" type="line"/>
      <point x="1181" y="1500" type="line"/>
      <point x="1181" y="1448" type="line"/>
      <point x="928" y="1433" type="line"/>
      <point x="1105" y="779" type="line"/>
      <point x="1312" y="18" type="line"/>
      <point x="1584" y="806" type="line"/>
      <point x="1785" y="1427" type="line"/>
      <point x="1554" y="1443" type="line"/>
      <point x="1554" y="1500" type="line"/>
      <point x="2067" y="1500" type="line"/>
      <point x="2067" y="1443" type="line"/>
      <point x="1856" y="1426" type="line"/>
      <point x="1643" y="786" type="line"/>
      <point x="1379" y="-5" type="line"/>
      <point x="1294" y="-5" type="line"/>
      <point x="1086" y="774" type="line"/>
      <point x="906" y="1431" type="line"/>
    </contour>
  </outline>
</glyph>
<glyph name="bracketleft" format="1">
  <advance width="601"/>
  <unicode hex="005B"/>
  <outline>
    <contour>
      <point x="148" y="509" type="line"/>
      <point x="156" y="1428" type="line"/>
      <point x="143" y="1452" type="line"/>
      <point x="148" y="1500" type="line"/>
      <point x="552" y="1500" type="line"/>
      <point x="552" y="1440" type="line"/>
      <point x="160" y="1425" type="line"/>
      <point x="162" y="509" type="line"/>
      <point x="160" y="-406" type="line"/>
      <point x="552" y="-421" type="line"/>
      <point x="552" y="-480" type="line"/>
      <point x="144" y="-480" type="line"/>
      <point x="141" y="-432" type="line"/>
      <point x="156" y="-408" type="line"/>
    </contour>
  </outline>
</glyph>
<glyph name="bracketright" format="1">
  <advance width="601"/>
  <unicode hex="005D"/>
  <outline>
    <contour>
      <point x="453" y="509" type="line"/>
      <point x="446" y="-408" type="line"/>
      <point x="458" y="-432" type="line"/>
      <point x="455" y="-480" type="line"/>
      <point x="50" y="-480" type="line"/>
      <point x="50" y="-421" type="line"/>
      <point x="441" y="-406" type="line"/>
      <point x="440" y="509" type="line"/>
      <point x="441" y="1425" type="line"/>
      <point x="50" y="1440" type="line"/>
      <point x="50" y="1500" type="line"/>
      <point x="455" y="1500" type="line"/>
      <point x="458" y="1452" type="line"/>
      <point x="446" y="1428" type="line"/>
    </contour>
  </outline>
</glyph>
<glyph name="a" format="1">
  <advance width="990"/>
  <unicode hex="0061"/>
  <outline>
    <contour>
      <point x="105" y="246" type="qcurve" smooth="yes"/>
      <point x="105" y="387"/>
      <point x="358" y="578"/>
      <point x="714" y="637" type="qcurve"/>
      <point x="716" y="595" type="line"/>
      <point x="417" y="545"/>
      <point x="125" y="376"/>
      <point x="125" y="253" type="qcurve" smooth="yes"/>
      <point x="125" y="152"/>
      <point x="251" y="39"/>
      <point x="379" y="39" type="qcurve" smooth="yes"/>
      <point x="497" y="39"/>
      <point x="700" y="182"/>
      <point x="709" y="245" type="qcurve"/>
      <point x="709" y="242" type="line"/>
      <point x="707" y="162"/>
      <point x="511" y="-15"/>
      <point x="356" y="-15" type="qcurve" smooth="yes"/>
      <point x="233" y="-15"/>
      <point x="105" y="126"/>
    </contour>
    <contour>
      <point x="153" y="910" type="line"/>
      <point x="186" y="948"/>
      <point x="335" y="1021"/>
      <point x="451" y="1021" type="qcurve" smooth="yes"/>
      <point x="586" y="1021"/>
      <point x="732" y="840"/>
      <point x="731" y="621" type="qcurve"/>
      <point x="731" y="65" type="line"/>
      <point x="947" y="43" type="line"/>
      <point x="947" y="0" type="line"/>
      <point x="702" y="0" type="line"/>
      <point x="713" y="3" type="line"/>
      <point x="713" y="176" type="line"/>
      <point x="714" y="618" type="line" smooth="yes"/>
      <point x="713" y="803"/>
      <point x="560" y="958"/>
      <point x="426" y="958" type="qcurve" smooth="yes"/>
      <point x="333" y="958"/>
      <point x="210" y="911"/>
      <point x="180" y="883" type="qcurve"/>
    </contour>
  </outline>
</glyph>
<glyph name="f" format="1">
  <advance width="605"/>
  <unicode hex="0066"/>
  <outline>
    <contour>
      <point x="50" y="0" type="line"/>
      <point x="50" y="43" type="line"/>
      <point x="289" y="75" type="line"/>
      <point x="289" y="527" type="line"/>
      <point x="290" y="902" type="line"/>
      <point x="60" y="927" type="line"/>
      <point x="60" y="970" type="line"/>
      <point x="290" y="987" type="line"/>
      <point x="290" y="1354" type="line" smooth="yes"/>
      <point x="289" y="1430"/>
      <point x="347" y="1507"/>
      <point x="410" y="1514" type="qcurve"/>
      <point x="556" y="1501" type="line"/>
      <point x="556" y="1453" type="line"/>
      <point x="308" y="1419" type="line"/>
      <point x="308" y="527" type="line"/>
      <point x="308" y="75" type="line"/>
      <point x="560" y="43" type="line"/>
      <point x="560" y="0" type="line"/>
    </contour>
    <contour>
      <point x="298" y="925" type="line"/>
      <point x="300" y="975" type="line"/>
      <point x="568" y="975" type="line"/>
      <point x="568" y="925" type="line"/>
    </contour>
  </outline>
</glyph>
<glyph name="j" format="1">
  <advance width="535"/>
  <unicode hex="006A"/>
  <outline>
    <contour>
      <point x="34" y="-478" type="line"/>
      <point x="34" y="-428" type="line"/>
      <point x="281" y="-406" type="line"/>
      <point x="280" y="527" type="line"/>
      <point x="280" y="905" type="line"/>
      <point x="42" y="940" type="line"/>
      <point x="42" y="986" type="line"/>
      <point x="300" y="1003" type="line"/>
      <point x="300" y="1000" type="line"/>
      <point x="299" y="970" type="line"/>
      <point x="299" y="527" type="line"/>
      <point x="299" y="-332" type="line" smooth="yes"/>
      <point x="299" y="-415"/>
      <point x="213" y="-490"/>
      <point x="135" y="-490" type="qcurve"/>
    </contour>
    <contour>
      <point x="251" y="1312" type="qcurve" smooth="yes"/>
      <point x="251" y="1328"/>
      <point x="270" y="1350"/>
      <point x="285" y="1350" type="qcurve" smooth="yes"/>
      <point x="299" y="1350"/>
      <point x="319" y="1329"/>
      <point x="319" y="1312" type="qcurve" smooth="yes"/>
      <point x="319" y="1297"/>
      <point x="300" y="1275"/>
      <point x="285" y="1275" type="qcurve" smooth="yes"/>
      <point x="270" y="1275"/>
      <point x="251" y="1299"/>
    </contour>
  </outline>
</glyph>
<glyph name="k" format="1">
  <advance width="1033"/>
  <unicode hex="006B"/>
  <outline>
    <contour>
      <point x="71" y="0" type="line"/>
      <point x="71" y="43" type="line"/>
      <point x="281" y="78" type="line"/>
      <point x="281" y="504" type="line"/>
      <point x="281" y="1427" type="line"/>
      <point x="48" y="1453" type="line"/>
      <point x="48" y="1500" type="line"/>
      <point x="304" y="1515" type="line"/>
      <point x="299" y="1507" type="line"/>
      <point x="300" y="1484" type="line"/>
      <point x="300" y="503" type="line"/>
      <point x="300" y="78" type="line"/>
      <point x="505" y="43" type="line"/>
      <point x="505" y="0" type="line"/>
    </contour>
    <contour>
      <point x="293" y="416" type="line"/>
      <point x="293" y="477" type="line"/>
      <point x="790" y="942" type="line"/>
      <point x="624" y="955" type="line"/>
      <point x="624" y="1000" type="line"/>
      <point x="1020" y="1000" type="line"/>
      <point x="1020" y="955" type="line"/>
      <point x="862" y="941" type="line"/>
    </contour>
    <contour>
      <point x="502" y="626" type="line"/>
      <point x="517" y="640" type="line"/>
      <point x="894" y="60" type="line"/>
      <point x="1077" y="43" type="line"/>
      <point x="1077" y="0" type="line"/>
      <point x="923" y="0" type="line"/>
      <point x="901" y="14" type="line"/>
      <point x="865" y="70" type="line"/>
    </contour>
  </outline>
</glyph>
<glyph name="s" format="1">
  <advance width="835"/>
  <unicode hex="0073"/>
  <outline>
    <contour>
      <point x="58" y="0" type="line"/>
      <point x="58" y="320" type="line"/>
      <point x="110" y="320" type="line"/>
      <point x="157" y="117" type="line"/>
      <point x="106" y="0" type="line"/>
    </contour>
    <contour>
      <point x="97" y="780" type="qcurve" smooth="yes"/>
      <point x="97" y="886"/>
      <point x="265" y="1022"/>
      <point x="391" y="1022" type="qcurve" smooth="yes"/>
      <point x="491" y="1022"/>
      <point x="625" y="958"/>
      <point x="660" y="915" type="qcurve"/>
      <point x="636" y="875" type="line"/>
      <point x="598" y="916"/>
      <point x="475" y="972"/>
      <point x="379" y="972" type="qcurve" smooth="yes"/>
      <point x="255" y="972"/>
      <point x="101" y="872"/>
      <point x="101" y="794" type="qcurve" smooth="yes"/>
      <point x="101" y="710"/>
      <point x="269" y="602"/>
      <point x="436" y="548" type="qcurve" smooth="yes"/>
      <point x="601" y="494"/>
      <point x="780" y="373"/>
      <point x="780" y="269" type="qcurve" smooth="yes"/>
      <point x="780" y="144"/>
      <point x="587" y="-20"/>
      <point x="446" y="-20" type="qcurve" smooth="yes"/>
      <point x="335" y="-20"/>
      <point x="160" y="65"/>
      <point x="110" y="137" type="qcurve"/>
      <point x="147" y="176" type="line"/>
      <point x="181" y="114"/>
      <point x="339" y="33"/>
      <point x="466" y="33" type="qcurve" smooth="yes"/>
      <point x="593" y="33"/>
      <point x="773" y="159"/>
      <point x="773" y="256" type="qcurve" smooth="yes"/>
      <point x="773" y="355"/>
      <point x="586" y="477"/>
      <point x="426" y="530" type="qcurve" smooth="yes"/>
      <point x="258" y="586"/>
      <point x="97" y="690"/>
    </contour>
    <contour>
      <point x="624" y="893" type="line"/>
      <point x="660" y="1000" type="line"/>
      <point x="708" y="1000" type="line"/>
      <point x="708" y="709" type="line"/>
      <point x="657" y="709" type="line"/>
    </contour>
  </outline>
</glyph>
<glyph name="u" format="1">
  <advance width="1190"/>
  <unicode hex="0075"/>
  <outline>
    <contour>
      <point x="52" y="940" type="line"/>
      <point x="52" y="986" type="line"/>
      <point x="285" y="1000" type="line"/>
      <point x="288" y="991" type="line"/>
      <point x="286" y="968" type="line"/>
      <point x="287" y="473" type="line"/>
      <point x="287" y="275" type="line" smooth="yes"/>
      <point x="287" y="153"/>
      <point x="406" y="53"/>
      <point x="525" y="53" type="qcurve" smooth="yes"/>
      <point x="642" y="53"/>
      <point x="836" y="190"/>
      <point x="899" y="349" type="qcurve"/>
      <point x="897" y="310" type="line"/>
      <point x="864" y="167"/>
      <point x="670" y="-18"/>
      <point x="534" y="-18" type="qcurve" smooth="yes"/>
      <point x="399" y="-18"/>
      <point x="268" y="115"/>
      <point x="268" y="245" type="qcurve" smooth="yes"/>
      <point x="268" y="323"/>
      <point x="268" y="473"/>
      <point x="268" y="473" type="qcurve"/>
      <point x="268" y="915" type="line"/>
    </contour>
    <contour>
      <point x="688" y="940" type="line"/>
      <point x="688" y="986" type="line"/>
      <point x="915" y="1000" type="line"/>
      <point x="914" y="991" type="line"/>
      <point x="912" y="967" type="line"/>
      <point x="913" y="473" type="line"/>
      <point x="912" y="80" type="line"/>
      <point x="1128" y="59" type="line"/>
      <point x="1128" y="14" type="line"/>
      <point x="881" y="-1" type="line"/>
      <point x="894" y="21" type="line"/>
      <point x="894" y="127" type="line"/>
      <point x="893" y="473" type="line"/>
      <point x="894" y="915" type="line"/>
    </contour>
  </outline>
</glyph>
<glyph name="w" format="1">
  <advance width="1522"/>
  <unicode hex="0077"/>
  <outline>
    <contour>
      <point x="-37" y="955" type="line"/>
      <point x="-37" y="1000" type="line"/>
      <point x="370" y="1000" type="line"/>
      <point x="370" y="955" type="line"/>
      <point x="181" y="923" type="line"/>
      <point x="310" y="501" type="line"/>
      <point x="461" y="4" type="line"/>
      <point x="640" y="476" type="line"/>
      <point x="756" y="813" type="line"/>
      <point x="776" y="701" type="line"/>
      <point x="683" y="450" type="line"/>
      <point x="518" y="-7" type="line"/>
      <point x="441" y="-7" type="line"/>
      <point x="290" y="497" type="line"/>
      <point x="162" y="921" type="line"/>
    </contour>
    <contour>
      <point x="506" y="955" type="line"/>
      <point x="506" y="1000" type="line"/>
      <point x="908" y="1000" type="line"/>
      <point x="908" y="955" type="line"/>
      <point x="724" y="923" type="line"/>
      <point x="851" y="503" type="line"/>
      <point x="1002" y="4" type="line"/>
      <point x="1184" y="511" type="line"/>
      <point x="1326" y="937" type="line"/>
      <point x="1160" y="955" type="line"/>
      <point x="1160" y="1000" type="line"/>
      <point x="1549" y="1000" type="line"/>
      <point x="1549" y="955" type="line"/>
      <point x="1388" y="936" type="line"/>
      <point x="1230" y="492" type="line"/>
      <point x="1059" y="-7" type="line"/>
      <point x="982" y="-7" type="line"/>
      <point x="832" y="498" type="line"/>
      <point x="704" y="921" type="line"/>
    </contour>
  </outline>
</glyph>
<glyph name="bar" format="1">
  <advance width="583"/>
  <unicode hex="007C"/>
  <outline>
    <contour>
      <point x="289" y="-506" type="line"/>
      <point x="289" y="-58" type="line"/>
      <point x="291" y="250" type="line"/>
      <point x="292" y="830" type="line"/>
      <point x="289" y="1138" type="line"/>
      <point x="289" y="1514" type="line"/>
      <point x="294" y="1516" type="line"/>
      <point x="294" y="1138" type="line"/>
      <point x="292" y="830" type="line"/>
      <point x="291" y="250" type="line"/>
      <point x="294" y="-58" type="line"/>
      <point x="294" y="-504" type="line"/>
    </contour>
  </outline>
</glyph>
